<?xml version="1.0" standalone="no"?>
<!DOCTYPE svg PUBLIC "-//W3C//DTD SVG 20010904//EN"
 "http://www.w3.org/TR/2001/REC-SVG-20010904/DTD/svg10.dtd">
<svg version="1.0" xmlns="http://www.w3.org/2000/svg"
 width="259.000000pt" height="194.000000pt" viewBox="0 0 259.000000 194.000000"
 preserveAspectRatio="xMidYMid meet">

<g transform="translate(0.000000,194.000000) scale(0.100000,-0.100000)"
fill="#000000" stroke="none">
<path d="M1384 1254 c-19 -18 -24 -31 -19 -47 16 -53 17 -69 4 -78 -11 -6 -11
-11 -1 -21 6 -6 12 -17 12 -22 0 -6 -9 0 -19 13 -28 36 -47 22 -92 -71 -31
-64 -39 -91 -36 -119 5 -42 61 -172 70 -163 7 7 13 -19 22 -91 7 -63 7 -52 5
-170 -1 -55 2 -124 6 -152 5 -39 3 -57 -7 -70 -10 -11 -10 -14 -1 -9 8 5 12 0
12 -14 0 -13 -4 -19 -12 -14 -6 4 -8 3 -5 -3 10 -16 59 -25 70 -14 7 7 10 69
9 168 -2 126 0 164 13 187 8 15 15 35 15 42 0 23 19 16 24 -9 3 -12 10 -45 16
-72 6 -28 10 -100 8 -160 l-3 -110 30 -6 c24 -5 27 -7 13 -13 -10 -5 -25 -5
-34 -2 -8 3 -12 2 -9 -4 8 -13 52 -13 60 1 4 6 8 125 10 266 l3 255 24 22 c42
35 76 89 89 138 12 45 12 48 -16 85 -54 70 -107 123 -125 123 -33 0 -53 35
-45 80 12 73 -41 105 -91 54z m101 -164 c-3 -5 1 -23 10 -41 9 -17 14 -33 11
-37 -3 -3 -6 0 -6 7 0 7 -4 9 -10 6 -5 -3 -7 0 -4 9 4 11 0 13 -15 9 -11 -3
-18 -10 -15 -17 3 -8 -6 -11 -30 -8 -24 3 -41 -1 -51 -12 -9 -9 -13 -16 -8
-16 4 0 2 -4 -6 -9 -11 -7 -12 -17 -4 -50 6 -23 7 -38 2 -35 -6 3 -8 -6 -5
-20 3 -14 0 -28 -5 -31 -5 -4 -9 1 -9 9 0 9 -8 16 -17 16 -13 0 -14 -3 -5 -12
7 -7 12 -17 12 -23 0 -5 -5 -3 -11 5 -8 12 -10 10 -6 -10 7 -41 7 -50 1 -52
-9 -4 -15 42 -17 129 -1 57 2 76 16 90 16 16 17 16 17 0 0 -33 16 -17 26 26 9
42 9 42 59 45 30 2 53 9 58 18 4 8 10 14 13 14 3 0 2 -4 -1 -10z m-25 -103 c0
-19 -10 -27 -26 -20 -21 8 -17 33 6 33 11 0 20 -6 20 -13z m129 -24 c18 -37
18 -39 -1 -93 -10 -30 -20 -61 -20 -67 -1 -7 -6 -13 -11 -13 -5 0 -7 13 -4 29
3 15 1 33 -6 40 -8 8 -8 11 2 11 7 0 9 4 6 10 -4 6 -17 3 -33 -7 l-27 -17 20
23 c11 13 21 38 21 56 3 73 24 84 53 28z m-66 -44 c-6 -6 -10 4 -10 28 -1 38
-1 38 9 10 6 -18 7 -32 1 -38z m-113 4 c1 -16 2 -16 15 1 15 20 15 20 16 0 1
-17 2 -17 6 -1 7 28 28 14 31 -21 2 -24 -1 -32 -13 -32 -10 0 -13 -5 -9 -12 6
-10 4 -10 -8 0 -8 7 -23 10 -32 6 -9 -3 -16 -5 -16 -3 -1 2 -3 21 -6 42 -4 23
-2 37 5 37 6 0 11 -8 11 -17z m10 -93 c0 -5 -2 -10 -4 -10 -3 0 -8 5 -11 10
-3 6 -1 10 4 10 6 0 11 -4 11 -10z m120 -60 c0 -5 -8 -10 -17 -10 -15 0 -16 2
-3 10 19 12 20 12 20 0z m-170 -20 c0 -5 -4 -10 -10 -10 -5 0 -10 5 -10 10 0
6 5 10 10 10 6 0 10 -4 10 -10z m30 -520 c0 -5 -11 -10 -25 -10 -14 0 -25 5
-25 10 0 6 11 10 25 10 14 0 25 -4 25 -10z"/>
</g>
</svg>
